/* XPM */
static char *out[] = {
/* columns rows colors chars-per-pixel */
"64 64 226 2 ",
"   c #020104",
".  c #0B0302",
"X  c #0A0B07",
"o  c #04040C",
"O  c #0B060C",
"+  c #0B0A0C",
"@  c #120501",
"#  c #160B09",
"$  c #1B110A",
"%  c #1B120E",
"&  c #040612",
"*  c #060A14",
"=  c #0B0B14",
"-  c #060718",
";  c #060C1A",
":  c #0A0D1A",
">  c #120C13",
",  c #170E18",
"<  c #07101A",
"1  c #0C111C",
"2  c #131215",
"3  c #1A1512",
"4  c #1C1915",
"5  c #13141B",
"6  c #19171A",
"7  c #1C1B1B",
"8  c #290B04",
"9  c #28160C",
"0  c #371104",
"q  c #261715",
"w  c #221D1A",
"e  c #361C14",
"r  c #2D2114",
"t  c #25211D",
"y  c #2B231E",
"u  c #36251B",
"i  c #090D23",
"p  c #110E23",
"a  c #0C1323",
"s  c #091421",
"d  c #0C152A",
"f  c #0D182B",
"g  c #121522",
"h  c #141925",
"j  c #1B1C23",
"k  c #121629",
"l  c #181528",
"z  c #131A2B",
"x  c #1A1D2C",
"c  c #0E1D31",
"v  c #141D32",
"b  c #1A1E32",
"n  c #221D23",
"m  c #211C28",
"M  c #1D2123",
"N  c #17202D",
"B  c #1B222E",
"V  c #162134",
"C  c #1C2234",
"Z  c #1D243A",
"A  c #1C2A3C",
"S  c #242222",
"D  c #2A2522",
"F  c #2D2925",
"G  c #23232B",
"H  c #2A232A",
"J  c #27282A",
"K  c #2C2A2B",
"L  c #322623",
"P  c #312B26",
"I  c #362729",
"U  c #332D2A",
"Y  c #343025",
"T  c #35322C",
"R  c #3A332C",
"E  c #212433",
"W  c #252934",
"Q  c #2B2B32",
"!  c #22263B",
"~  c #232A3C",
"^  c #2A2C3B",
"/  c #302D33",
"(  c #302E3C",
")  c #2D3034",
"_  c #24303E",
"`  c #2C313B",
"'  c #343333",
"]  c #3C3532",
"[  c #3E3935",
"{  c #34343A",
"}  c #3A373A",
"|  c #353838",
" . c #3C3A3B",
".. c #471602",
"X. c #482816",
"o. c #502811",
"O. c #71341C",
"+. c #44342B",
"@. c #4D3529",
"#. c #5C3227",
"$. c #413734",
"%. c #423935",
"&. c #4A3935",
"*. c #443E3A",
"=. c #4B3D3C",
"-. c #553E37",
";. c #643C2B",
":. c #45413D",
">. c #4A413E",
",. c #58453A",
"<. c #774226",
"1. c #654335",
"2. c #6B4A35",
"3. c #684A37",
"4. c #79533D",
"5. c #1B2540",
"6. c #1C2B43",
"7. c #232B41",
"8. c #232C47",
"9. c #292D42",
"0. c #263145",
"q. c #2A3244",
"w. c #24324C",
"e. c #2B344B",
"r. c #2D384E",
"t. c #323543",
"y. c #373A47",
"u. c #3B3B42",
"i. c #31364C",
"p. c #343B4C",
"a. c #2B3A54",
"s. c #333B50",
"d. c #423E42",
"f. c #4F3F42",
"g. c #3E444D",
"h. c #394354",
"j. c #454342",
"k. c #4D4542",
"l. c #4E4A45",
"z. c #45454A",
"x. c #4B454B",
"c. c #4D4A4A",
"v. c #504744",
"b. c #524A46",
"n. c #5D4E45",
"m. c #554D4A",
"M. c #584E4C",
"N. c #5B504E",
"B. c #454755",
"V. c #564E53",
"C. c #515259",
"Z. c #634C45",
"A. c #6C584F",
"S. c #775746",
"D. c #79624C",
"F. c #74645C",
"G. c #4F5A6A",
"H. c #5A5B67",
"J. c #6E6971",
"K. c #746E73",
"L. c #895135",
"P. c #A05E3C",
"I. c #845649",
"U. c #915F56",
"Y. c #89624A",
"T. c #896658",
"R. c #966859",
"E. c #9B735C",
"W. c #AF7455",
"Q. c #866E62",
"!. c #87746D",
"~. c #A97966",
"^. c #AB7D6B",
"/. c #988072",
"(. c #B7866B",
"). c #AA8575",
"_. c #BB927E",
"`. c #C6967B",
"'. c #D2967B",
"]. c #6D7685",
"[. c #737583",
"{. c #817B84",
"}. c #7E828C",
"|. c #788193",
" X c #928888",
".X c #828A96",
"XX c #9B9498",
"oX c #A5938D",
"OX c #AB918F",
"+X c #B6978B",
"@X c #BBA597",
"#X c #8992A2",
"$X c #8B99A7",
"%X c #929AA6",
"&X c #9CA2B1",
"*X c #AFA2A3",
"=X c #A6A8B4",
"-X c #BEB1B4",
";X c #C69A87",
":X c #C7A288",
">X c #D7A38B",
",X c #C7A696",
"<X c #DBAD98",
"1X c #DCBE9D",
"2X c #E4AF94",
"3X c #F4B99C",
"4X c #D2B6AA",
"5X c #C5B7B6",
"6X c #E8BAA6",
"7X c #FDCBAD",
"8X c #F3CBB9",
"9X c #FCD3B6",
"0X c #ABBCCA",
"qX c #B7BBC7",
"wX c #C9C2C4",
"eX c #D0CCD4",
"rX c #DBD4D9",
"tX c #FFE7CE",
"yX c #CED9E8",
"uX c #D5D9E9",
"iX c #D5E0EB",
"pX c #F1E6E6",
"aX c #EBEDF1",
"sX c #EBF6FE",
"dX c #EEF9FE",
"fX c #F9FCFD",
/* pixels */
"*.>.l.m.m.M.N.m.N.m.m.m.m.m.m.,.b.l.b.v.v.k.v.>.b.k.>.k.k.=.*.=.k.*.*.>.=.=.:.*.=.*.*.&.:.*.%.%.%.%.%.%.$.*.$.$. .$.$.] $.$.R ] ",
":.:.l.m.m.M.m.N.M.m.m.m.m.>.m.l.b.b.b.b.v.b.v.k.>.v.v.>.*.=.k.*.>.f.k.=.:.*.:.=.*.:.*.*.*.%.*.*.%.%.$.%.$.%.$.%.$.$.$.$.] ] R ] ",
":.:.l.m.M.M.C.m.M.M.m.m.m.l.l.m.b.b.b.b.v.b.>.k.v.>.>.v.>.k.*.>.>.k.f.>.:.=.*.=.=.*.*.*.*.&.*.%.$.*.%.$.$.$.$.$.] ] $.] ] +.+.] ",
":.:.l.m.m.M.m.N.M.m.m.m.m.m.m.l.b.b.b.b.k.v.v.v.v.k.k.>.>.>.>.>.>.*.:.*.*.*.*.:.*.:.&.*.*.%.*.%.%.%.$.%.$.*.%.$.$.$.$.$.} ] ] ] ",
"*.:.l.m.m.m.M.M.M.m.m.m.m.l.m.>.b.v.b.b.k.b.v.k.k.v.v.>.>.>.>.=.>.*.=.=.=.*.*.>.:.:.*.:.*.&.*.%.&.%.%.%.$.$.*.$.$.] ] $.$.] ] ] ",
":.:.l.m.m.m.M.M.M.M.m.m.m.m.m.m.b.b.b.b.b.v.v.k.v.>.k.k.>.>.>.=.=.k.>.*.*.k.>.=.&.*.%.&.=.%.*.%.*.%.$.%.$.$.$.$.$.$.$.$.] +.] ] ",
"*.:.l.l.m.M.M.M.N.m.m.m.m.m.m.>.v.b.b.b.b.v.b.v.v.>.>.>.v.v.>.>.>.>.>.*.] ] *.*.*.>.&.*.*.*.*.%.%.%.%.%.=.$.$.$.$.$.$.] ] ] ] I ",
"[ :.>.m.m.m.M.M.N.M.m.m.m.M.m.m.b.b.b.b.b.k.b.v.b.b.v.>.>.>.$.%.] U U L L L %.k.>.*.:.:.*.%.*.$.%.%.%.%.*.$.$.*.$.$.$.] $.] ] +.",
":.:.l.m.m.m.M.M.n.m.m.m.m.m.m.>.b.b.b.b.v.k.k.b.>.k.k.:.%.] L q q % # % y ] R R U R >.>.[ *.*.*.*.$.$.$.=.$.$.*.$.$.$.] ] ] R +.",
":.:.:.l.C.m.m.M.N.M.m.m.m.m.m.m.b.b.b.b.b.b.b.b.v.k.k.T y w % .   . @ % y Y y w # $ R =.[ :.*.$.$.*.$.=.$.$.$.$.$.$.$.] ] ] ] ] ",
"[ :.:.l.m.m.m.m.m.N.m.m.m.m.m.>.b.b.b.b.b.v.b.b.k.v.R w X . . . @ . @ 4 M M $.+.# . 4 ] :.:.*.[ *.$.$.$.$.$.$.$.$.$.$.$.] ] ] I ",
"[ :.l.l.,.m.m.M.m.m.m.m.m.m.m.m.b.b.v.k.k.v.>.v.b.&.4 %   @ -.S.Y.4.X.9 2 6 L Y % . X D |  .*.*.*.*.$.$.$.$.$.$.] $.] ] ] ] $.$.",
"[ :.:.:.l.M.M.M.m.m.m.m.,.m.m.l.b.b.k.b.v.v.v.k.>.-.q . . @.^.`.>X2X`./.4.@.e r q . . 3 ] *.*.[ $.$.$.$.$.$.%.%.$.$.$.] ] +.] ] ",
"[ :.:.l.l.m.M.M.m.m.m.m.m.l.m.l.b.k.v.b.b.v.k.b.v.f.H . 9 D.).^.'.3X7X8X9X8X4XoXQ.9   $ $.*.*.*.$.*.$.$.$.$.$.$.$.] $.$.I $.] $.",
"[ :.:.m.l.M.M.M.m.m.m.m.m.m.m.l.b.b.k.b.k.v.b.k.c.l.n # r F.E.~.'.3X7X7X9XtXtXtX6X3.. 8 %.%.%.[ $.$.$.$.$.$.} $.$.$.$.] ] +.$.] ",
"[ :.:.l.,.m.m.M.N.m.m.m.m.>.m.m.b.b.b.b.v.v.l.l.:.z.y @ y D.D.Y.I.W.`.7X1X+X`.>X,XS.@ 9 +.%.[ %.$.$.d.$.$.$.$.$.$.$.$.I ] ] ] ] ",
"[ :.:.,.l.l.m.m.m.m.m.b.m.b.b.m.v.v.b.v.v.v.l.k.=.v.b.q @.3.X.X.0 0 o.S.4.....<.E.1.8 r +.[ [ [ *.$.*.$.$.$.%.%.$.$.] R $.] ] $.",
"[ [ :.>.m.m.m.m.m.m.m.b.n.b.b.v.l.b.v.v.v.l.v.k.v.-.Z.;.S.T.I.I.U.I.#.;XE.E.~.(.(.4.3.,.:.:.[ [  .$.%.$.$.$.$.%.$.] $.R $.R ] R ",
"[ [ :.>.m.>.m.m.m.n.M.b.v.b.v.b.v.v.v.v.k.v.k.k.=.f.-.3.E.E.R.~.^.R.U.6X8X(.2X2X_.)./.+.Y :.:.[ %.%.+.%.$.$.$.$.$.$.R $.] $.R +.",
"T [ :.:.>.m.l.m.m.m.b.b.b.b.v.v.l.k.v.v.v.k.k.v.k.f.,.Q.D.E.Y.~.{.U.4.`.>X`.'.2X:X+XT.+.:.+.[ [ :.%.+.%.$.%.$.$.$.] $.] +.] ] ] ",
"T [ :.:.,.l.l.m.m.M.b.b.b.b.b.l.k.v.k.v.k.k.k.k.j.j.:.,.3.S.2.T.P.O...O.P.(.(.:X`.T.,.$.] [ *.[ +.%.%.+.%.%.*.$.[ [ R [ ] ] T ] ",
"[ [ :.:.l.l.l.m.b.m.b.b.>.l.l.l.b.l.v.v.k.v.k.k.d.z.*.$.-.A.;.4.<.O.<.W.W.P.P.(.E.,.R $.[ [  .[ %.+.%.$.$.%.] $.] R [ | ] T R R ",
"Y [ :.j.l.l.l.m.m.b.b.b.b.b.v.v.v.v.v.>.k.k.k.f.k.j.k.=.+.Z.1.;.U.(.W.W.'.3X>XE.2.@.Y ]  .[ %.$.%.%.%.+.+.%.[ $.] [ R R [ R R Y ",
"T [ j.:.:.l.l.l.b.b.b.b.b.b.v.v.v.v.v.k.v.k.k.=.f.d.m.U q Z.@.X.;.{.;X<X8X2XE.2.@.+.] [ *.[ $.$.%.$.%.$.$.+.] $.R [ | [ R | R R ",
"[ [ :.:.j.:.l.l.m.l.m.,.b.b.b.l.v.v.,.k.v.,.k.>.l.c.U % q N.+.8 0 X.I.OXI.;.#.4.,.Y :.| | [ [ [ %.%.[ ] ] ] R [ [ ] ] ' ' ] ] T ",
"Y [ [ :.l.,.l.l.l.m.,.l.b.b.b.,.v.v.k.k.>.v.l.>. .S 1 + + S $.I e 8 e 0 8 o.Q.@Xn.2 K ) | |  .[  . . .[ ] R [ ] [ T ] [ [ ] ' ] ",
"Y [ [ :.l.l.l.l.m.l.l.m.l.b.l.l.v.v.l.l.l.x.=.H 2 * < 1 o O w ] e I #.;.L.).+XoXF.2 M 1 M ) | | } u. .} [ [ ] [ ] [ R R ] ] T ] ",
"T | :.:.:.l.l.l.m.m.m.l.l.>.l.l.l.x.x.x.x. .n j < < < h : o   L F.T.I.R._.,XOXXXJ.W C s < W | ` { u.u.| [ ] ] ] T ' ' [ ] ] T T ",
"| [ [ :.:.l.l.l.m.>.m.>.>.l.l.c.c.c.x.z.u.W x m C s ; ; s ; &   $.*X4XOX,X@X!.}.J.A 6.c C q.t.u.{ q.y.{ { } } ] R R R R T T R R ",
"[ Y [ :.:.:.,.l.>.m.m.l.>.l.c.l.d.u.Q W x b ^ 9.~ B s ; d d d a : C.*XwX-X-X{.p.h.8.6.6.~ q.i.y.9.9.i.t./ { { ] ' R R R T R R T ",
"Y [ [ [ :.:.l.l.m.,.l.:.m.l.l.| G j h k b b 7.e.t.` E x f c V c v c G.0XeXuXwX].Z w.w.w.a.0.i.9.! 8.i.i.^ { { [ ' R R R R Y R U ",
"T | [ [ :.l.:.l.>.m.l.l.l.l. .J 1 1 l x E E 7.9.y.t.W E C z Z 6.8.w.a.].yXdXdX].c w.w.w.r.r.e.q.! ! e.7.~ ` { | ' R R R R R R Y ",
"T T [ [ :.>.>.l.v.v.v.v.v.x. .j = : a k v E ! ^ ` y.` E ! b ! 9.9.9.0.h.0XsXsX|.z e.0.e.8.e.a.e.b b 8.b A ` ` { } R +.R I R R / ",
"T T R [ :.:.>.>.v.k.v.v.v.l.*.J : * & ; d b E E B _ g.q.! ! ! ! e.9.0.A $XsXdX$XV e.0.e.7.7.e.9.v 5.Z b ~ ! W ' { ] R R R R R I ",
"T T R  .[ :.:.l.b.k.k.v.v.l.j.Q j : 1 i k b E v s s 9.s.9.E 7.7.7.9.8.9.B.iXfX$XV e.9.e.7.! q.7.v ! b v C C E Q ' R R ] R R T U ",
"T T T [ *.:.:.>.k.k.k.k.k.l.j.' j : : i a x x C a & i i.e.! 8.q.b v 7.! A #XdX#XC q.e.e.7.8.9.b ~ C a z z C E Q { { R R ' T R T ",
"T T ' R *.:.:.>.>.k.k.,.>.>.l.| j = & * s z ! ~ V & & V e.q.~ 7.Z i z ~ A g.yX#Xk e.q.9.7.9.9.! 9.x : z ! q.q.( { ' ' ] R T T T ",
"T Y R | ] :.:.>.k.>.k.k.>.>.j. .j : ; ; 1 k G ~ ~ 5 o : C ! q.~ 7.V a v _ Z ].].v r.9.e.9.~ ! ^ E a ; z ~ q.^ ^ Q { ' T T T Y U ",
"T T T R [ *.:.>.>.>.>.>.>.l.:.) 6 = - * ; g x C G Q - o g E B ! Z 0.V s C z A h.! 7.q.7.Z ! b x h = * x Z b v E ` { ' ' T Y Y Y ",
"Y Y R | ] *.:.>.>.>.>.>.:.:.:.| Q h : ; ; g x E m q >   > h x v ~ ~ ~ C a z C z b 9.i.9.! ! b x g & : k v v v ^ { ` ) ' T T Y Y ",
"Y T T R [ [ :.:.:.&.>.>.:.:.j.d.J h 1 < < a B E / f. X=.o O p k E Z ~ ~ d a d i ! 9.7.! ! b x g - o o l b b ! 9.t.` ' ) T Y Y Y ",
"Y K T ' [  .:.:.:.:.>.>.:.:.:.| J 7 5 1 < 1 k G I f.5XeXK.n O p h B x x z i p i E 7.7.b v a - & &   o m 7.! 7.9.t.t.` ' ) Y Y P ",
"U Y T ] ] [ %.:.:.:.:.:.:.:.:.:.g.{ M h : : g x m +.V.*XrXXXH > p 1 g x v i p l ^ ! Z s.%XqX}.G     > m b ! 7.7.0.q.` ` ) U U P ",
"U K Y T ] ] [ :.:.:.:.:.:.:.:.:. .| Q 5 5 : * h m n n x.J.H.( / ( 9.9.q.9.b ! r.p.q.q.e.].aXfXrXXXv., , p l b b Z ~ q.q.` T I Y ",
"P U U ] R [ :.:.:.:.:.:.:.[ *.g.d.} ( M 1 & * g g j Q m { ^ C p.h.p.p.r.0.6.6.a.a.a.a.0._ .XaXfXpXpXoXw i 9.e.q.7.~ 0.` Q Q U I ",
"F U U T R [ [ [ %.:.:.%.:.:.*.*.d. .Q J 5 = * - g l b E ~ C ~ s.r.i.r.w.w.6.w.a.w.w.w.0.W g.wXrX5X5XOXd.7.e.e.9.0.q.~ W W K U P ",
"U P Y T R ] [ :.:.[ %.:.[ :.*.*.j.{ n G Q x & o i v v v A Z 7.0.e.w.w.6.6.A r.s.6.v v z N h B.C.x.f.{ 9.e.q.9.0.~ 0.q.^ W K K U ",
"P F P Y R ] ] ] [ :.[ %.*.[  .*.*. .n o m H g - : f f c C Z 9.9.7.7.0.A Z 0.~ E E g : ; * s < h E ! E b C C A ~ _ ! ` ) ) J F F ",
"U P P U T ] ] %.*.[ :.%.:.:.:.[ %.d./ +   5 E l - ; a z x z E E C ~ z g x x m m > & o   o s q.q.e.e.5.d k b b b C ^ W Q K K D D ",
"P F F U T R ] [ *.[ %.%.R +.[ :. .*.{ > O o   g 5 & ; 1 : : 1 : = : = 1 O O o &     o o a C q.0.8.e.8.5.l k b Z x h m K U U F D ",
"P F F U U R ] [ [ [ %.%.[ +.[ R [  .] M & o   o : = & o o       .   @ . . K H.[.B.: N G E W B C ! 5.8.8.b : - - o o q D P P u y ",
"P L F P T T T [ [ ] ] $.:.%.%.%.[  . .K O O o             # n ] =.=.n   F.XXqXuX&Xq.C B h h B C E E b k : & - = > n D D y P y r ",
"F F P U U Y T ] ] [ [ [ R R [ [  .| [ ) 7 o o o           = D *.x.N.I % F. X&XqX=XH.W z 1 a h 5 : - & & + 6 n U K K F F y y y y ",
"F F F F K U U ] R ' R ' R [ R R R ' ' ' M * o o                       . % w [.&X|.].y.< j 1 * &       6 D K K K D y D F F y y F ",
"F y F F F U T T [ T R [ ' R R ' ' T ' ' M = o                   o o . O O o j t.C 1 1 h a 1 *         6 U K D D F D D D S D y t ",
"F F F F F K U T T T R | R R | R ' T ' ' M = o             o o o 2 > : : = ; o   *     * & o   o       = S D D K F y t D D y t y ",
"F F F F F F F T T T T T ] ' R T T ) T T M X o o o   X o o o o 1 : g h a 1 < s & o &   - : * o & o o o + w U D S D S S S y y t t ",
"y y F S D F F T T U U U U U U U Y ) ) ) M < o o     o o * * * ; 1 k k f z f k g * o - ; & * * * < * o O 4 D S S D D y t t t t t ",
"y S F y S F F F U U U U U U U K K Y ) F 7 * o o o o o o * * : ; s a f f f h a h 1 a * o 1 1 < 1 < = +   > w S S t t t t t w w w ",
"y S S S y y D F K F F U F P P F F J Y F 2 o o * * * = 1 1 1 g h a a k z f f a h h g 1 ; 5 h h 1 < * o   O w S t t w w w w w w w ",
"y y t t t t t D F F S F F L F F F F F J 5 o o * * * < 2 1 5 h a 1 s g k k a h a : g a * < < * * * * o   X 7 t t w w w 4 4 4 4 4 ",
"t t t S t t t y y y y F D D F y D S M M 2 o o o o o o * & & * ; 1 g a : : * ; * * h h * * ; & & + * o   X 7 t 7 w w 4 4 w 4 4 4 ",
"t w w w w w w t t y t t y t y t S S S t 5 o o o o o * o & & * = 1 1 : - & & & : a h 1 o o 1 * * * & o   X 7 7 4 4 4 4 4 3 4 4 3 ",
"7 w 7 w w w w w t M t M w w t t t t S M < o * * o * < < : : a a a * o - * * ; a h a *     < < * & o * o X 2 4 4 4 3 3 3 $ 3 3 3 "
};
